<svg width="9" height="11" viewBox="0 0 9 11" fill="none" xmlns="http://www.w3.org/2000/svg">
<path d="M6.75378 7.77094L5.05685 7.31625L5.09183 7.18572C6.63915 7.18061 8.10357 6.12732 8.53494 4.51741C9.04792 2.60293 7.9404 0.627313 6.07379 0.127154C4.20717 -0.373005 2.26022 0.784168 1.74723 2.69865C1.31586 4.30856 2.05744 5.95294 3.3949 6.73103L3.35993 6.86156L1.663 6.40687C1.19634 6.28183 0.709607 6.57113 0.581361 7.04975C0.453115 7.52837 0.729996 8.02227 1.19665 8.14731L2.89358 8.602L2.6604 9.47222C2.53216 9.95084 2.80904 10.4447 3.27569 10.5698C3.74235 10.6948 4.22908 10.4055 4.35733 9.92691L4.5905 9.05669L6.28743 9.51138C6.75409 9.63642 7.24082 9.34713 7.36907 8.86851C7.49731 8.38989 7.22043 7.89598 6.75378 7.77094ZM3.44416 3.15334C3.70065 2.1961 4.67413 1.61751 5.60744 1.86759C6.54075 2.11767 7.09451 3.10548 6.83801 4.06272C6.58152 5.01996 5.60805 5.59855 4.67474 5.34847C3.74143 5.09839 3.18767 4.11058 3.44416 3.15334Z" fill="white"/>
</svg>
