<svg width="10" height="10" viewBox="0 0 10 10" fill="none" xmlns="http://www.w3.org/2000/svg">
<path d="M9.16667 0H5C4.54167 0 4.16667 0.375 4.16667 0.833333C4.16667 1.29167 4.54167 1.66667 5 1.66667H7.16667L5.04167 3.79167C4.54167 3.5 3.95833 3.33333 3.33333 3.33333C1.5 3.33333 0 4.83333 0 6.66667C0 8.5 1.5 10 3.33333 10C5.16667 10 6.66667 8.5 6.66667 6.66667C6.66667 6.04167 6.5 5.45833 6.20833 4.95833L8.33333 2.83333V5C8.33333 5.45833 8.70833 5.83333 9.16667 5.83333C9.625 5.83333 10 5.45833 10 5V0.833333C10 0.375 9.625 0 9.16667 0ZM3.33333 8.33333C2.41667 8.33333 1.66667 7.58333 1.66667 6.66667C1.66667 5.75 2.41667 5 3.33333 5C4.25 5 5 5.75 5 6.66667C5 7.58333 4.25 8.33333 3.33333 8.33333Z" fill="white"/>
</svg>
